# OBJ written from F:\Pygame Dev 5\Folders\OBJ\Cube.obj

o Mesh
v -0.5 -0.5 -0.5
v 0.5 -0.5 -0.5
v 0.5 -0.5 0.5
v -0.5 -0.5 0.5
v -0.5 0.5 -0.5
v 0.5 0.5 -0.5
v 0.5 0.5 0.5
v -0.5 0.5 0.5
vn 0 -1 0
vn 0 0 -1
vn 1 0 0
vn 0 0 1
vn -1 0 0
vn 0 1 0
vt 0.333667 0
vt 0.667 0
vt 0.667 0.333333
vt 0.333667 0.333333
vt 1.33367 0.666667
vt 1.00033 0.666667
vt 1.00033 0.333333
vt 1.33367 0.333333
vt 0.667 0.666667
vt 0.333667 0.666667
vt 0.000333503 0.666667
vt 0.000333503 0.333333
vt 0.333667 1
vt 0.667 1
mtllib Cube.mtl
usemtl Default
g Default
f 1/1/1 2/2/1 3/3/1 4/4/1
f 5/5/2 6/6/2 2/7/2 1/8/2
f 6/6/3 7/9/3 3/3/3 2/7/3
f 7/9/4 8/10/4 4/4/4 3/3/4
f 8/10/5 5/11/5 1/12/5 4/4/5
f 5/13/6 8/10/6 7/9/6 6/14/6
