# OBJ written from F:\Pygame Dev 5\Folders\OBJ\Cube_rot_frame.obj
# Units	meters

o Mesh
v -0.478933 -0.128474 -0.710013
v -0.397302 -0.233984 -0.488243
v -0.241054 -0.0769511 -0.622053
v -0.30262 -0.0797855 -0.449732
v 0.30916 -0.680435 -0.437526
v 0.258597 -0.426894 -0.449296
v -0.447865 0.0195564 -0.500013
v -0.123387 0.548 -0.368035
v 0.0328604 0.705033 -0.501845
v 0.0834232 0.451492 -0.490075
v 0.102349 -0.583928 -0.315486
v 0.340228 -0.532405 -0.227526
v 0.197031 -0.429729 -0.276975
v 0.664705 -0.00396119 -0.0955479
v 0.114492 0.599523 -0.280075
v 0.0201494 0.446942 -0.316291
v 0.820953 0.153072 -0.229358
v 0.583074 0.101549 -0.317318
v 0.614142 0.249579 -0.107318
v 0.5198 0.0969983 -0.143534
v -0.820953 -0.153072 0.229358
v -0.614142 -0.249579 0.107318
v -0.583074 -0.101549 0.317318
v -0.664705 0.00396119 0.0955479
v -0.519461 -0.0953806 0.145829
v -0.114492 -0.599523 0.280075
v -0.0198099 -0.445324 0.318586
v -0.340228 0.532405 0.227526
v -0.102349 0.583928 0.315486
v -0.195323 0.431445 0.275513
v -0.0328604 -0.705033 0.501845
v -0.0834232 -0.451492 0.490075
v 0.123387 -0.548 0.368035
v 0.447865 -0.0195564 0.500013
v -0.30916 0.680435 0.437526
v -0.258597 0.426894 0.449296
v 0.241054 0.0769511 0.622053
v 0.397302 0.233984 0.488243
v 0.302067 0.0825564 0.449603
v 0.478933 0.128474 0.710013
vn -0.511793 -0.833508 -0.208166
vn -0.511792 -0.833508 -0.208167
vn -0.511792 -0.833508 -0.208167
vn -0.511793 -0.833508 -0.208166
vn 0.342021 0.0245994 -0.93937
vn 0.342021 0.0245992 -0.93937
vn 0.342021 0.0245993 -0.93937
vn 0.342021 0.0245994 -0.93937
vn 0.788093 -0.551961 0.272487
vn 0.788092 -0.551962 0.272487
vn 0.788092 -0.551962 0.272488
vn 0.788092 -0.551961 0.272488
vn -0.34202 -0.0245995 0.939371
vn -0.34202 -0.0245995 0.939371
vn -0.34202 -0.0245996 0.939371
vn -0.34202 -0.0245996 0.939371
vn -0.788093 0.55196 -0.272488
vn -0.788092 0.551961 -0.272488
vn -0.788093 0.551961 -0.272487
vn -0.788093 0.55196 -0.272487
vn 0.511793 0.833507 0.208168
vn 0.511792 0.833508 0.208168
vn 0.511792 0.833508 0.208168
vn 0.511793 0.833507 0.208168
vn 0.788094 -0.551959 0.272487
vn 0.788093 -0.55196 0.272487
vn 0.788093 -0.55196 0.272487
vn -0.34202 -0.0245979 0.939371
vn -0.342021 -0.0245975 0.93937
vn -0.346322 -0.0215808 0.937868
vn -0.788092 0.551962 -0.272487
vn -0.788092 0.551962 -0.272487
vn -0.788092 0.551961 -0.272487
vn 0.34202 0.0245972 -0.939371
vn 0.34202 0.0245979 -0.939371
vn 0.342019 0.0245979 -0.939371
vn 0.788092 -0.551962 0.272487
vn 0.788092 -0.551962 0.272487
vn -0.511794 -0.833507 -0.208164
vn -0.511793 -0.833507 -0.208165
vn -0.511794 -0.833507 -0.208166
vn -0.788092 0.551961 -0.272487
vn -0.785283 0.556509 -0.271345
vn 0.515499 0.833726 0.197891
vn 0.50934 0.836633 0.20154
vn 0.517953 0.8306 0.204518
vn -0.342022 -0.0245971 0.93937
vn -0.33922 -0.020043 0.940494
vn -0.511793 -0.833507 -0.208167
vn -0.511793 -0.833507 -0.208166
vn 0.342018 0.0245987 -0.939371
vn 0.34481 0.0291518 -0.93822
vn 0.520376 0.827424 0.211133
vn 0.514216 0.830331 0.214782
vn -0.788092 0.551961 -0.272488
vn -0.785283 0.556509 -0.271345
vn -0.511793 -0.833508 -0.208165
vn -0.511794 -0.833507 -0.208166
vn 0.788092 -0.551961 0.272488
vn 0.788092 -0.551962 0.272487
vn 0.508025 0.833189 0.218419
vn 0.505603 0.836364 0.211804
vn 0.342019 0.0245985 -0.939371
vn 0.344811 0.0291517 -0.938219
vn -0.511794 -0.833507 -0.208167
vn -0.350613 -0.0185632 0.936336
vn -0.343521 -0.0170262 0.938991
vn 0.50315 0.83949 0.205176
vn -0.336408 -0.0154883 0.941589
vn 0.788092 -0.551962 0.272487
vn 0.347592 0.033704 -0.93704
vn -0.782451 0.56104 -0.270194
vt 0.333305 0.333333
vt 0.333305 0
vt 0.385397 0.0520922
vt 0.385397 0.281241
vt 0.66663 0
vt 0.614538 0.0520922
vt 0.66663 0.333333
vt 0.614538 0.281241
vt 1.33328 0.333333
vt 1.33328 0.666667
vt 1.28785 0.621236
vt 1.28785 0.378764
vt 0.999955 0.666667
vt 1.04539 0.621236
vt 0.999955 0.333333
vt 1.04539 0.378764
vt 0.939127 0.605839
vt 0.939127 0.394161
vt 0.66663 0.666667
vt 0.727458 0.605839
vt 0.727458 0.394161
vt 0.621199 0.621236
vt 0.621199 0.378764
vt 0.333305 0.666667
vt 0.378736 0.621236
vt 0.378736 0.378764
vt 0.272477 0.605839
vt 0.272477 0.394161
vt -1.99972e-005 0.666667
vt 0.0608076 0.605839
vt -1.99972e-005 0.333333
vt 0.0608076 0.394161
vt 0.66663 1
vt 0.333305 1
vt 0.385397 0.947908
vt 0.614538 0.947908
vt 0.385397 0.718759
vt 0.614538 0.718759
vt 0.433809 0.0520922
vt 0.433809 0.281241
vt 0.614538 0.100502
vt 0.385397 0.100502
vt 0.566126 0.281241
vt 0.566126 0.0520922
vt 0.385397 0.232831
vt 0.614538 0.232831
vt 1.23662 0.621236
vt 1.23662 0.378764
vt 1.04539 0.570011
vt 1.28785 0.570011
vt 1.09661 0.378764
vt 1.09661 0.621236
vt 1.28785 0.429989
vt 1.04539 0.429989
vt 0.894406 0.605839
vt 0.894406 0.394161
vt 0.727458 0.56112
vt 0.939127 0.56112
vt 0.772178 0.394161
vt 0.772178 0.605839
vt 0.939127 0.43888
vt 0.727458 0.43888
vt 0.569972 0.621236
vt 0.569972 0.378764
vt 0.378736 0.570011
vt 0.621199 0.570011
vt 0.429963 0.378764
vt 0.429963 0.621236
vt 0.621199 0.429989
vt 0.378736 0.429989
vt 0.227757 0.605839
vt 0.227757 0.394161
vt 0.0608076 0.56112
vt 0.272477 0.56112
vt 0.105529 0.394161
vt 0.105529 0.605839
vt 0.272477 0.43888
vt 0.0608077 0.43888
vt 0.385397 0.899498
vt 0.614538 0.899498
vt 0.433809 0.718759
vt 0.433809 0.947908
vt 0.614538 0.767169
vt 0.385397 0.767169
vt 0.566126 0.947908
vt 0.566126 0.718759
mtllib Cube_rot_frame.mtl
usemtl Default
g Default
f 21/1/1 1/2/2 2/3/2 22/4/1
f 1/2/2 5/5/3 11/6/3 2/3/2
f 5/5/3 31/7/4 26/8/4 11/6/3
f 31/7/4 21/1/1 22/4/1 26/8/4
f 1/9/5 9/10/6 10/11/6 3/12/5
f 9/10/6 17/13/7 18/14/7 10/11/6
f 17/13/7 5/15/8 6/16/8 18/14/7
f 5/15/8 1/9/5 3/12/5 6/16/8
f 5/15/9 17/13/10 14/17/10 12/18/9
f 17/13/10 40/19/11 34/20/11 14/17/10
f 40/19/11 31/7/12 33/21/12 34/20/11
f 31/7/12 5/15/9 12/18/9 33/21/12
f 31/7/13 40/19/14 37/22/14 32/23/13
f 40/19/14 35/24/15 36/25/15 37/22/14
f 35/24/15 21/1/16 23/26/16 36/25/15
f 21/1/16 31/7/13 32/23/13 23/26/16
f 21/1/17 35/24/18 28/27/18 24/28/17
f 35/24/18 9/29/19 8/30/19 28/27/18
f 9/29/19 1/31/20 7/32/20 8/30/19
f 1/31/20 21/1/17 24/28/17 7/32/20
f 17/33/21 9/34/22 15/35/22 19/36/21
f 9/34/22 35/24/23 29/37/23 15/35/22
f 35/24/23 40/19/24 38/38/24 29/37/23
f 40/19/24 17/33/21 19/36/21 38/38/24
f 22/4/25 2/3/25 4/39/26 25/40/27
f 2/3/28 11/6/28 13/41/29 4/42/30
f 11/6/31 26/8/31 27/43/32 13/44/33
f 26/8/34 22/4/34 25/45/35 27/46/36
f 3/12/37 10/11/37 16/47/38 4/48/26
f 10/11/39 18/14/39 20/49/40 16/50/41
f 18/14/42 6/16/42 13/51/33 20/52/43
f 6/16/44 3/12/44 4/53/45 13/54/46
f 12/18/47 14/17/47 20/55/48 13/56/29
f 14/17/49 34/20/49 39/57/50 20/58/40
f 34/20/51 33/21/51 27/59/36 39/60/52
f 33/21/53 12/18/53 13/61/46 27/62/54
f 32/23/55 37/22/55 39/63/56 27/64/32
f 37/22/57 36/25/57 30/65/58 39/66/50
f 36/25/59 23/26/59 25/67/27 30/68/60
f 23/26/61 32/23/61 27/69/54 25/70/62
f 24/28/63 28/27/63 30/71/64 25/72/35
f 28/27/65 8/30/65 16/73/41 30/74/58
f 8/30/66 7/32/66 4/75/30 16/76/67
f 7/32/68 24/28/68 25/77/62 4/78/45
f 19/36/69 15/35/69 16/79/67 20/80/48
f 15/35/70 29/37/70 30/81/60 16/82/38
f 29/37/71 38/38/71 39/83/52 30/84/64
f 38/38/72 19/36/72 20/85/43 39/86/56
