# OBJ written from F:\Pygame Dev 3\Folders\OBJ\Cube_big_inside.obj

o Mesh
v -0.5 -0.5 -0.5
v 0.5 -0.5 -0.5
v 0.5 -0.5 0.5
v -0.5 -0.5 0.5
v -0.5 0.5 -0.5
v 0.5 0.5 -0.5
v 0.5 0.5 0.5
v -0.5 0.5 0.5
v 0 -0.5 -0.5
v 0.5 -0.5 0
v 0 -0.5 0.5
v -0.5 -0.5 0
v 0 -0.5 0
v 0 0.5 -0.5
v 0.5 0 -0.5
v -0.5 0 -0.5
v 0 0 -0.5
v 0.5 0.5 0
v 0.5 0 0.5
v 0.5 0 0
v 0 0.5 0.5
v -0.5 0 0.5
v 0 0 0.5
v -0.5 0.5 0
v -0.5 0 0
v 0 0.5 0
v -0.99 -0.99 -0.99
v 0.99 -0.99 -0.99
v 0.99 -0.99 0.99
v -0.99 -0.99 0.99
v -0.99 0.99 -0.99
v 0.99 0.99 -0.99
v 0.99 0.99 0.99
v -0.99 0.99 0.99
vn 0 -1 0
vn 0 0 -1
vn 1 0 0
vn 0 0 1
vn -1 0 0
vn 0 1 0
vt 0.25 0
vt 0.375 0
vt 0.375 0.166667
vt 0.25 0.166667
vt 0.5 0
vt 0.5 0.166667
vt 0.5 0.333333
vt 0.375 0.333333
vt 0.25 0.333333
vt 1 0.666667
vt 0.875 0.666667
vt 0.875 0.5
vt 1 0.5
vt 0.75 0.666667
vt 0.75 0.5
vt 0.75 0.333333
vt 0.875 0.333333
vt 1 0.333333
vt 0.625 0.666667
vt 0.625 0.5
vt 0.5 0.666667
vt 0.5 0.5
vt 0.625 0.333333
vt 0.375 0.666667
vt 0.375 0.5
vt 0.25 0.666667
vt 0.25 0.5
vt 0.125 0.666667
vt 0.125 0.5
vt 0 0.666667
vt 0 0.5
vt 0 0.333333
vt 0.125 0.333333
vt 0.25 1
vt 0.25 0.833333
vt 0.375 0.833333
vt 0.375 1
vt 0.5 0.833333
vt 0.5 1
mtllib Cube_big_inside.mtl
usemtl Default
g Default
f 1/1/1 9/2/1 13/3/1 12/4/1
f 2/5/1 10/6/1 13/3/1 9/2/1
f 3/7/1 11/8/1 13/3/1 10/6/1
f 4/9/1 12/4/1 13/3/1 11/8/1
f 5/10/2 14/11/2 17/12/2 16/13/2
f 6/14/2 15/15/2 17/12/2 14/11/2
f 2/16/2 9/17/2 17/12/2 15/15/2
f 1/18/2 16/13/2 17/12/2 9/17/2
f 6/14/3 18/19/3 20/20/3 15/15/3
f 7/21/3 19/22/3 20/20/3 18/19/3
f 3/7/3 10/23/3 20/20/3 19/22/3
f 2/16/3 15/15/3 20/20/3 10/23/3
f 7/21/4 21/24/4 23/25/4 19/22/4
f 8/26/4 22/27/4 23/25/4 21/24/4
f 4/9/4 11/8/4 23/25/4 22/27/4
f 3/7/4 19/22/4 23/25/4 11/8/4
f 8/26/5 24/28/5 25/29/5 22/27/5
f 5/30/5 16/31/5 25/29/5 24/28/5
f 1/32/5 12/33/5 25/29/5 16/31/5
f 4/9/5 22/27/5 25/29/5 12/33/5
f 5/34/6 24/35/6 26/36/6 14/37/6
f 8/26/6 21/24/6 26/36/6 24/35/6
f 7/21/6 18/38/6 26/36/6 21/24/6
f 6/39/6 14/37/6 26/36/6 18/38/6
f 27/1/1 28/5/1 29/7/1 30/9/1
f 31/10/2 32/14/2 28/16/2 27/18/2
f 32/14/3 33/21/3 29/7/3 28/16/3
f 33/21/4 34/26/4 30/9/4 29/7/4
f 34/26/5 31/30/5 27/32/5 30/9/5
f 31/34/6 34/26/6 33/21/6 32/39/6
